<svg width="269" height="43" viewBox="0 0 269 43" fill="none" xmlns="http://www.w3.org/2000/svg">
<mask id="path-1-outside-1_23_189" maskUnits="userSpaceOnUse" x="-0.900002" y="-0.899902" width="270" height="44" fill="black">
<rect fill="white" x="-0.900002" y="-0.899902" width="270" height="44"/>
<path d="M26.2216 34.9968C22.4718 34.9968 19.008 34.5995 15.8302 33.805C12.6524 33.0104 9.88767 31.8663 7.53608 30.3725C5.1845 28.8788 3.35726 27.0831 2.05435 24.9855C0.751451 22.8561 0.0999985 20.4724 0.0999985 17.8345V17.2624C0.0999985 13.7346 1.30757 10.6835 3.72271 8.10918C6.13785 5.53483 9.554 3.56434 13.9712 2.19771C18.4201 0.799303 23.6317 0.100098 29.606 0.100098C36.8196 0.100098 42.9211 1.00589 47.9102 2.81746C52.8994 4.59726 56.6492 7.10804 59.1597 10.3498L44.3352 14.7357C43.0641 13.4009 41.205 12.3839 38.7581 11.6847C36.343 10.9537 33.2923 10.5882 29.606 10.5882C24.9664 10.5882 21.3119 11.192 18.6425 12.3998C15.9732 13.5757 14.6385 15.1966 14.6385 17.2624V17.8345C14.6385 19.9003 15.9732 21.5371 18.6425 22.7448C21.3119 23.9208 24.9664 24.5087 29.606 24.5087C31.4491 24.5087 33.3558 24.4134 35.3261 24.2227C37.2963 24.0002 39.1553 23.6983 40.9031 23.3169C42.6509 22.9037 44.0968 22.4111 45.2409 21.839H29.463V16.1183H59.1597V34.234H47.7196L48.1962 27.0831H47.2905C46.2101 28.7357 44.6371 30.15 42.5715 31.326C40.5059 32.5019 38.0749 33.4077 35.2784 34.0433C32.5137 34.679 29.4948 34.9968 26.2216 34.9968Z"/>
<path d="M89.2377 34.9968C83.1999 34.9968 77.9565 34.3135 73.5075 32.9469C69.0904 31.5485 65.6742 29.5621 63.2591 26.9877C60.8757 24.4134 59.684 21.3623 59.684 17.8345V17.2624C59.684 13.7028 60.8757 10.6517 63.2591 8.10918C65.6742 5.53483 69.0904 3.56434 73.5075 2.19771C77.9565 0.799303 83.1999 0.100098 89.2377 0.100098C95.3073 0.100098 100.551 0.799303 104.968 2.19771C109.385 3.56434 112.785 5.53483 115.169 8.10918C117.584 10.6517 118.791 13.7028 118.791 17.2624V17.8345C118.791 21.3623 117.584 24.4134 115.169 26.9877C112.785 29.5621 109.385 31.5485 104.968 32.9469C100.551 34.3135 95.3073 34.9968 89.2377 34.9968ZM89.2377 24.032C93.5913 24.032 97.0233 23.4917 99.5338 22.4111C102.076 21.2987 103.347 19.7732 103.347 17.8345V17.2624C103.347 15.3237 102.076 13.8141 99.5338 12.7335C97.0233 11.6211 93.5913 11.0649 89.2377 11.0649C84.9159 11.0649 81.4838 11.6211 78.9416 12.7335C76.3993 13.8141 75.1282 15.3237 75.1282 17.2624V17.8345C75.1282 19.7732 76.3993 21.2987 78.9416 22.4111C81.4838 23.4917 84.9159 24.032 89.2377 24.032Z"/>
<path d="M115.884 31.8504L128.086 8.01383H136.333L141.862 31.8504H133.616L130.661 19.074L124.13 31.8504H115.884Z"/>
<path d="M163.027 8.01383H169.748L166.364 31.8504H159.691L159.881 30.2772C159.786 30.3407 159.691 30.4202 159.595 30.5155C159.532 30.5791 159.452 30.6427 159.357 30.7062C157.704 31.8504 155.782 32.4225 153.589 32.4225C150.348 32.4225 147.821 31.2147 146.01 28.7993C144.199 26.3521 143.531 23.3964 144.008 19.9321C144.485 16.4996 145.978 13.5439 148.489 11.0649C150.936 8.64947 153.796 7.44175 157.069 7.44175C159.166 7.44175 160.866 8.02972 162.169 9.20566C162.265 9.301 162.36 9.41224 162.455 9.53937C162.582 9.63472 162.694 9.73006 162.789 9.82541L163.027 8.01383ZM156.735 15.4508C155.591 15.4508 154.527 15.8958 153.542 16.7857C152.588 17.6438 152.016 18.6926 151.825 19.9321C151.635 21.1398 151.905 22.1886 152.636 23.0785C153.367 23.9684 154.32 24.4134 155.496 24.4134C156.64 24.4134 157.704 23.9684 158.69 23.0785C159.166 22.6336 159.532 22.1569 159.786 21.6483C160.072 21.108 160.263 20.536 160.358 19.9321C160.453 19.2965 160.421 18.7244 160.263 18.2159C160.135 17.6756 159.897 17.1988 159.548 16.7857C158.817 15.8958 157.879 15.4508 156.735 15.4508Z"/>
<path d="M170.483 31.8504L173.819 8.01383H181.542L180.398 15.8799H185.307L186.404 8.01383H194.126L190.741 31.8504H183.067L184.163 23.9843H179.254L178.157 31.8504H170.483Z"/>
<path d="M207.174 15.6892C206.189 15.6892 205.347 16.0229 204.648 16.6903C203.885 17.3895 203.44 18.2318 203.313 19.217C203.186 20.2023 203.393 21.0445 203.933 21.7437C204.505 22.4429 205.252 22.7925 206.173 22.7925C207.127 22.7925 207.969 22.4429 208.7 21.7437C209.462 21.0445 209.907 20.2023 210.034 19.217C210.161 18.2318 209.955 17.3895 209.415 16.6903C208.874 16.0229 208.128 15.6892 207.174 15.6892ZM207.842 7.5371C209.367 7.5371 210.638 7.90259 211.655 8.63358C211.718 8.66536 211.782 8.71304 211.846 8.7766C211.941 8.80838 212.004 8.85606 212.036 8.91962L212.132 8.06151H219.282L216.374 29.0377C215.802 33.1693 214.324 36.3793 211.941 38.6676C209.558 40.9559 206.602 42.1001 203.075 42.1001C198.054 42.1001 194.59 41.0831 192.683 39.049L197.259 32.4701C199.134 33.8685 201.279 34.5677 203.694 34.5677C205.156 34.5677 206.253 34.2181 206.984 33.5189C207.778 32.788 208.286 31.6597 208.509 30.1341V30.0388C208.477 30.0706 208.445 30.1024 208.414 30.1341C208.414 30.1341 208.398 30.1341 208.366 30.1341C207.317 30.6427 206.046 30.8969 204.553 30.8969C201.534 30.8969 199.166 29.7687 197.45 27.5121C195.734 25.2556 195.114 22.4906 195.591 19.217C196.068 15.9117 197.466 13.1466 199.786 10.9219C202.137 8.66536 204.823 7.5371 207.842 7.5371Z"/>
<path d="M223.11 8.01383H230.832L229.069 20.5995C228.91 21.7119 229.116 22.6018 229.688 23.2692C230.292 23.9684 231.055 24.318 231.976 24.318C232.93 24.318 233.804 23.9684 234.598 23.2692C235.361 22.6018 235.822 21.7119 235.98 20.5995L237.744 8.01383H245.466L242.082 31.8504H234.932L235.17 30.0865C235.043 30.2136 234.916 30.3407 234.789 30.4679C234.693 30.5632 234.566 30.6586 234.407 30.7539C232.946 31.8663 231.214 32.4225 229.212 32.4225C226.193 32.4225 224.016 31.2783 222.681 28.99C222.014 27.8458 221.569 26.5428 221.347 25.0808C221.124 23.6188 221.14 21.9979 221.394 20.2181L223.11 8.01383Z"/>
<path d="M250.225 24.5087C250.129 24.4134 250.034 24.318 249.939 24.2227C249.843 24.1273 249.748 24.0161 249.653 23.889C248.159 22.0456 247.603 19.8527 247.984 17.3101C248.366 14.704 249.526 12.511 251.464 10.7312C253.434 8.91962 255.659 8.01383 258.138 8.01383H268.1L264.716 31.8504H257.041L257.756 26.6063H257.518C257.518 26.6063 257.502 26.6063 257.47 26.6063L254.42 31.8504H245.935L250.225 24.5087ZM259.234 16.1183H256.994C256.644 16.1183 256.358 16.2295 256.136 16.452C255.85 16.738 255.691 17.024 255.659 17.3101C255.595 17.6597 255.659 17.9457 255.85 18.1682C256.04 18.3907 256.31 18.5019 256.66 18.5019H258.9L259.234 16.1183Z"/>
</mask>
<path d="M26.2216 34.9968C22.4718 34.9968 19.008 34.5995 15.8302 33.805C12.6524 33.0104 9.88767 31.8663 7.53608 30.3725C5.1845 28.8788 3.35726 27.0831 2.05435 24.9855C0.751451 22.8561 0.0999985 20.4724 0.0999985 17.8345V17.2624C0.0999985 13.7346 1.30757 10.6835 3.72271 8.10918C6.13785 5.53483 9.554 3.56434 13.9712 2.19771C18.4201 0.799303 23.6317 0.100098 29.606 0.100098C36.8196 0.100098 42.9211 1.00589 47.9102 2.81746C52.8994 4.59726 56.6492 7.10804 59.1597 10.3498L44.3352 14.7357C43.0641 13.4009 41.205 12.3839 38.7581 11.6847C36.343 10.9537 33.2923 10.5882 29.606 10.5882C24.9664 10.5882 21.3119 11.192 18.6425 12.3998C15.9732 13.5757 14.6385 15.1966 14.6385 17.2624V17.8345C14.6385 19.9003 15.9732 21.5371 18.6425 22.7448C21.3119 23.9208 24.9664 24.5087 29.606 24.5087C31.4491 24.5087 33.3558 24.4134 35.3261 24.2227C37.2963 24.0002 39.1553 23.6983 40.9031 23.3169C42.6509 22.9037 44.0968 22.4111 45.2409 21.839H29.463V16.1183H59.1597V34.234H47.7196L48.1962 27.0831H47.2905C46.2101 28.7357 44.6371 30.15 42.5715 31.326C40.5059 32.5019 38.0749 33.4077 35.2784 34.0433C32.5137 34.679 29.4948 34.9968 26.2216 34.9968Z" fill="#B7CCE5"/>
<path d="M89.2377 34.9968C83.1999 34.9968 77.9565 34.3135 73.5075 32.9469C69.0904 31.5485 65.6742 29.5621 63.2591 26.9877C60.8757 24.4134 59.684 21.3623 59.684 17.8345V17.2624C59.684 13.7028 60.8757 10.6517 63.2591 8.10918C65.6742 5.53483 69.0904 3.56434 73.5075 2.19771C77.9565 0.799303 83.1999 0.100098 89.2377 0.100098C95.3073 0.100098 100.551 0.799303 104.968 2.19771C109.385 3.56434 112.785 5.53483 115.169 8.10918C117.584 10.6517 118.791 13.7028 118.791 17.2624V17.8345C118.791 21.3623 117.584 24.4134 115.169 26.9877C112.785 29.5621 109.385 31.5485 104.968 32.9469C100.551 34.3135 95.3073 34.9968 89.2377 34.9968ZM89.2377 24.032C93.5913 24.032 97.0233 23.4917 99.5338 22.4111C102.076 21.2987 103.347 19.7732 103.347 17.8345V17.2624C103.347 15.3237 102.076 13.8141 99.5338 12.7335C97.0233 11.6211 93.5913 11.0649 89.2377 11.0649C84.9159 11.0649 81.4838 11.6211 78.9416 12.7335C76.3993 13.8141 75.1282 15.3237 75.1282 17.2624V17.8345C75.1282 19.7732 76.3993 21.2987 78.9416 22.4111C81.4838 23.4917 84.9159 24.032 89.2377 24.032Z" fill="#B7CCE5"/>
<path d="M115.884 31.8504L128.086 8.01383H136.333L141.862 31.8504H133.616L130.661 19.074L124.13 31.8504H115.884Z" fill="#5B2330"/>
<path d="M163.027 8.01383H169.748L166.364 31.8504H159.691L159.881 30.2772C159.786 30.3407 159.691 30.4202 159.595 30.5155C159.532 30.5791 159.452 30.6427 159.357 30.7062C157.704 31.8504 155.782 32.4225 153.589 32.4225C150.348 32.4225 147.821 31.2147 146.01 28.7993C144.199 26.3521 143.531 23.3964 144.008 19.9321C144.485 16.4996 145.978 13.5439 148.489 11.0649C150.936 8.64947 153.796 7.44175 157.069 7.44175C159.166 7.44175 160.866 8.02972 162.169 9.20566C162.265 9.301 162.36 9.41224 162.455 9.53937C162.582 9.63472 162.694 9.73006 162.789 9.82541L163.027 8.01383ZM156.735 15.4508C155.591 15.4508 154.527 15.8958 153.542 16.7857C152.588 17.6438 152.016 18.6926 151.825 19.9321C151.635 21.1398 151.905 22.1886 152.636 23.0785C153.367 23.9684 154.32 24.4134 155.496 24.4134C156.64 24.4134 157.704 23.9684 158.69 23.0785C159.166 22.6336 159.532 22.1569 159.786 21.6483C160.072 21.108 160.263 20.536 160.358 19.9321C160.453 19.2965 160.421 18.7244 160.263 18.2159C160.135 17.6756 159.897 17.1988 159.548 16.7857C158.817 15.8958 157.879 15.4508 156.735 15.4508Z" fill="#5B2330"/>
<path d="M170.483 31.8504L173.819 8.01383H181.542L180.398 15.8799H185.307L186.404 8.01383H194.126L190.741 31.8504H183.067L184.163 23.9843H179.254L178.157 31.8504H170.483Z" fill="#5B2330"/>
<path d="M207.174 15.6892C206.189 15.6892 205.347 16.0229 204.648 16.6903C203.885 17.3895 203.44 18.2318 203.313 19.217C203.186 20.2023 203.393 21.0445 203.933 21.7437C204.505 22.4429 205.252 22.7925 206.173 22.7925C207.127 22.7925 207.969 22.4429 208.7 21.7437C209.462 21.0445 209.907 20.2023 210.034 19.217C210.161 18.2318 209.955 17.3895 209.415 16.6903C208.874 16.0229 208.128 15.6892 207.174 15.6892ZM207.842 7.5371C209.367 7.5371 210.638 7.90259 211.655 8.63358C211.718 8.66536 211.782 8.71304 211.846 8.7766C211.941 8.80838 212.004 8.85606 212.036 8.91962L212.132 8.06151H219.282L216.374 29.0377C215.802 33.1693 214.324 36.3793 211.941 38.6676C209.558 40.9559 206.602 42.1001 203.075 42.1001C198.054 42.1001 194.59 41.0831 192.683 39.049L197.259 32.4701C199.134 33.8685 201.279 34.5677 203.694 34.5677C205.156 34.5677 206.253 34.2181 206.984 33.5189C207.778 32.788 208.286 31.6597 208.509 30.1341V30.0388C208.477 30.0706 208.445 30.1024 208.414 30.1341C208.414 30.1341 208.398 30.1341 208.366 30.1341C207.317 30.6427 206.046 30.8969 204.553 30.8969C201.534 30.8969 199.166 29.7687 197.45 27.5121C195.734 25.2556 195.114 22.4906 195.591 19.217C196.068 15.9117 197.466 13.1466 199.786 10.9219C202.137 8.66536 204.823 7.5371 207.842 7.5371Z" fill="#5B2330"/>
<path d="M223.11 8.01383H230.832L229.069 20.5995C228.91 21.7119 229.116 22.6018 229.688 23.2692C230.292 23.9684 231.055 24.318 231.976 24.318C232.93 24.318 233.804 23.9684 234.598 23.2692C235.361 22.6018 235.822 21.7119 235.98 20.5995L237.744 8.01383H245.466L242.082 31.8504H234.932L235.17 30.0865C235.043 30.2136 234.916 30.3407 234.789 30.4679C234.693 30.5632 234.566 30.6586 234.407 30.7539C232.946 31.8663 231.214 32.4225 229.212 32.4225C226.193 32.4225 224.016 31.2783 222.681 28.99C222.014 27.8458 221.569 26.5428 221.347 25.0808C221.124 23.6188 221.14 21.9979 221.394 20.2181L223.11 8.01383Z" fill="#5B2330"/>
<path d="M250.225 24.5087C250.129 24.4134 250.034 24.318 249.939 24.2227C249.843 24.1273 249.748 24.0161 249.653 23.889C248.159 22.0456 247.603 19.8527 247.984 17.3101C248.366 14.704 249.526 12.511 251.464 10.7312C253.434 8.91962 255.659 8.01383 258.138 8.01383H268.1L264.716 31.8504H257.041L257.756 26.6063H257.518C257.518 26.6063 257.502 26.6063 257.47 26.6063L254.42 31.8504H245.935L250.225 24.5087ZM259.234 16.1183H256.994C256.644 16.1183 256.358 16.2295 256.136 16.452C255.85 16.738 255.691 17.024 255.659 17.3101C255.595 17.6597 255.659 17.9457 255.85 18.1682C256.04 18.3907 256.31 18.5019 256.66 18.5019H258.9L259.234 16.1183Z" fill="#5B2330"/>
<path d="M26.2216 34.9968C22.4718 34.9968 19.008 34.5995 15.8302 33.805C12.6524 33.0104 9.88767 31.8663 7.53608 30.3725C5.1845 28.8788 3.35726 27.0831 2.05435 24.9855C0.751451 22.8561 0.0999985 20.4724 0.0999985 17.8345V17.2624C0.0999985 13.7346 1.30757 10.6835 3.72271 8.10918C6.13785 5.53483 9.554 3.56434 13.9712 2.19771C18.4201 0.799303 23.6317 0.100098 29.606 0.100098C36.8196 0.100098 42.9211 1.00589 47.9102 2.81746C52.8994 4.59726 56.6492 7.10804 59.1597 10.3498L44.3352 14.7357C43.0641 13.4009 41.205 12.3839 38.7581 11.6847C36.343 10.9537 33.2923 10.5882 29.606 10.5882C24.9664 10.5882 21.3119 11.192 18.6425 12.3998C15.9732 13.5757 14.6385 15.1966 14.6385 17.2624V17.8345C14.6385 19.9003 15.9732 21.5371 18.6425 22.7448C21.3119 23.9208 24.9664 24.5087 29.606 24.5087C31.4491 24.5087 33.3558 24.4134 35.3261 24.2227C37.2963 24.0002 39.1553 23.6983 40.9031 23.3169C42.6509 22.9037 44.0968 22.4111 45.2409 21.839H29.463V16.1183H59.1597V34.234H47.7196L48.1962 27.0831H47.2905C46.2101 28.7357 44.6371 30.15 42.5715 31.326C40.5059 32.5019 38.0749 33.4077 35.2784 34.0433C32.5137 34.679 29.4948 34.9968 26.2216 34.9968Z" stroke="#6A657B" stroke-width="0.2" mask="url(#path-1-outside-1_23_189)"/>
<path d="M89.2377 34.9968C83.1999 34.9968 77.9565 34.3135 73.5075 32.9469C69.0904 31.5485 65.6742 29.5621 63.2591 26.9877C60.8757 24.4134 59.684 21.3623 59.684 17.8345V17.2624C59.684 13.7028 60.8757 10.6517 63.2591 8.10918C65.6742 5.53483 69.0904 3.56434 73.5075 2.19771C77.9565 0.799303 83.1999 0.100098 89.2377 0.100098C95.3073 0.100098 100.551 0.799303 104.968 2.19771C109.385 3.56434 112.785 5.53483 115.169 8.10918C117.584 10.6517 118.791 13.7028 118.791 17.2624V17.8345C118.791 21.3623 117.584 24.4134 115.169 26.9877C112.785 29.5621 109.385 31.5485 104.968 32.9469C100.551 34.3135 95.3073 34.9968 89.2377 34.9968ZM89.2377 24.032C93.5913 24.032 97.0233 23.4917 99.5338 22.4111C102.076 21.2987 103.347 19.7732 103.347 17.8345V17.2624C103.347 15.3237 102.076 13.8141 99.5338 12.7335C97.0233 11.6211 93.5913 11.0649 89.2377 11.0649C84.9159 11.0649 81.4838 11.6211 78.9416 12.7335C76.3993 13.8141 75.1282 15.3237 75.1282 17.2624V17.8345C75.1282 19.7732 76.3993 21.2987 78.9416 22.4111C81.4838 23.4917 84.9159 24.032 89.2377 24.032Z" stroke="#6A657B" stroke-width="0.2" mask="url(#path-1-outside-1_23_189)"/>
<path d="M115.884 31.8504L128.086 8.01383H136.333L141.862 31.8504H133.616L130.661 19.074L124.13 31.8504H115.884Z" stroke="#6A657B" stroke-width="0.2" mask="url(#path-1-outside-1_23_189)"/>
<path d="M163.027 8.01383H169.748L166.364 31.8504H159.691L159.881 30.2772C159.786 30.3407 159.691 30.4202 159.595 30.5155C159.532 30.5791 159.452 30.6427 159.357 30.7062C157.704 31.8504 155.782 32.4225 153.589 32.4225C150.348 32.4225 147.821 31.2147 146.01 28.7993C144.199 26.3521 143.531 23.3964 144.008 19.9321C144.485 16.4996 145.978 13.5439 148.489 11.0649C150.936 8.64947 153.796 7.44175 157.069 7.44175C159.166 7.44175 160.866 8.02972 162.169 9.20566C162.265 9.301 162.36 9.41224 162.455 9.53937C162.582 9.63472 162.694 9.73006 162.789 9.82541L163.027 8.01383ZM156.735 15.4508C155.591 15.4508 154.527 15.8958 153.542 16.7857C152.588 17.6438 152.016 18.6926 151.825 19.9321C151.635 21.1398 151.905 22.1886 152.636 23.0785C153.367 23.9684 154.32 24.4134 155.496 24.4134C156.64 24.4134 157.704 23.9684 158.69 23.0785C159.166 22.6336 159.532 22.1569 159.786 21.6483C160.072 21.108 160.263 20.536 160.358 19.9321C160.453 19.2965 160.421 18.7244 160.263 18.2159C160.135 17.6756 159.897 17.1988 159.548 16.7857C158.817 15.8958 157.879 15.4508 156.735 15.4508Z" stroke="#6A657B" stroke-width="0.2" mask="url(#path-1-outside-1_23_189)"/>
<path d="M170.483 31.8504L173.819 8.01383H181.542L180.398 15.8799H185.307L186.404 8.01383H194.126L190.741 31.8504H183.067L184.163 23.9843H179.254L178.157 31.8504H170.483Z" stroke="#6A657B" stroke-width="0.2" mask="url(#path-1-outside-1_23_189)"/>
<path d="M207.174 15.6892C206.189 15.6892 205.347 16.0229 204.648 16.6903C203.885 17.3895 203.44 18.2318 203.313 19.217C203.186 20.2023 203.393 21.0445 203.933 21.7437C204.505 22.4429 205.252 22.7925 206.173 22.7925C207.127 22.7925 207.969 22.4429 208.7 21.7437C209.462 21.0445 209.907 20.2023 210.034 19.217C210.161 18.2318 209.955 17.3895 209.415 16.6903C208.874 16.0229 208.128 15.6892 207.174 15.6892ZM207.842 7.5371C209.367 7.5371 210.638 7.90259 211.655 8.63358C211.718 8.66536 211.782 8.71304 211.846 8.7766C211.941 8.80838 212.004 8.85606 212.036 8.91962L212.132 8.06151H219.282L216.374 29.0377C215.802 33.1693 214.324 36.3793 211.941 38.6676C209.558 40.9559 206.602 42.1001 203.075 42.1001C198.054 42.1001 194.59 41.0831 192.683 39.049L197.259 32.4701C199.134 33.8685 201.279 34.5677 203.694 34.5677C205.156 34.5677 206.253 34.2181 206.984 33.5189C207.778 32.788 208.286 31.6597 208.509 30.1341V30.0388C208.477 30.0706 208.445 30.1024 208.414 30.1341C208.414 30.1341 208.398 30.1341 208.366 30.1341C207.317 30.6427 206.046 30.8969 204.553 30.8969C201.534 30.8969 199.166 29.7687 197.45 27.5121C195.734 25.2556 195.114 22.4906 195.591 19.217C196.068 15.9117 197.466 13.1466 199.786 10.9219C202.137 8.66536 204.823 7.5371 207.842 7.5371Z" stroke="#6A657B" stroke-width="0.2" mask="url(#path-1-outside-1_23_189)"/>
<path d="M223.11 8.01383H230.832L229.069 20.5995C228.91 21.7119 229.116 22.6018 229.688 23.2692C230.292 23.9684 231.055 24.318 231.976 24.318C232.93 24.318 233.804 23.9684 234.598 23.2692C235.361 22.6018 235.822 21.7119 235.98 20.5995L237.744 8.01383H245.466L242.082 31.8504H234.932L235.17 30.0865C235.043 30.2136 234.916 30.3407 234.789 30.4679C234.693 30.5632 234.566 30.6586 234.407 30.7539C232.946 31.8663 231.214 32.4225 229.212 32.4225C226.193 32.4225 224.016 31.2783 222.681 28.99C222.014 27.8458 221.569 26.5428 221.347 25.0808C221.124 23.6188 221.14 21.9979 221.394 20.2181L223.11 8.01383Z" stroke="#6A657B" stroke-width="0.2" mask="url(#path-1-outside-1_23_189)"/>
<path d="M250.225 24.5087C250.129 24.4134 250.034 24.318 249.939 24.2227C249.843 24.1273 249.748 24.0161 249.653 23.889C248.159 22.0456 247.603 19.8527 247.984 17.3101C248.366 14.704 249.526 12.511 251.464 10.7312C253.434 8.91962 255.659 8.01383 258.138 8.01383H268.1L264.716 31.8504H257.041L257.756 26.6063H257.518C257.518 26.6063 257.502 26.6063 257.47 26.6063L254.42 31.8504H245.935L250.225 24.5087ZM259.234 16.1183H256.994C256.644 16.1183 256.358 16.2295 256.136 16.452C255.85 16.738 255.691 17.024 255.659 17.3101C255.595 17.6597 255.659 17.9457 255.85 18.1682C256.04 18.3907 256.31 18.5019 256.66 18.5019H258.9L259.234 16.1183Z" stroke="#6A657B" stroke-width="0.2" mask="url(#path-1-outside-1_23_189)"/>
</svg>
