<svg width="40" height="40" fill="none" xmlns="http://www.w3.org/2000/svg">
  <path
    d="M20.412 7h-3.826c-.324 0-.587.276-.587.616v23.768c0 .34.263.616.587.616h3.826c.324 0 .587-.276.587-.616V7.616c0-.34-.263-.616-.587-.616z"
    fill="#6B9EFF"/>
  <path
    d="M24.6 12h-3.203a.39.39 0 00-.398.383v19.235a.39.39 0 00.399.382H24.6a.39.39 0 00.398-.383V12.383a.39.39 0 00-.398-.382zM7.661 30.825a.33.33 0 00.134.355c.037.026.08.045.124.056l3.067.733c.09.021.185.007.264-.04a.341.341 0 00.159-.21l3.242-12.846-3.706-.908-3.284 12.86zM15.988 13.404a.413.413 0 00-.303-.5l-2.894-.711a.414.414 0 00-.5.303l-.556 2.264 3.697.908.556-2.264z"
    fill="#ADD5D8"/>
  <path
    d="M11.735 14.755l-.792 3.223 3.697.909.792-3.224-3.697-.908zM31.004 11.27a.985.985 0 00-1.043-.93l-4.029.228a.99.99 0 00-.931 1.04l.087 1.55 6.004-.338-.088-1.55zM26.103 31.069a.986.986 0 001.043.93l4.029-.227a.99.99 0 00.932-1.041l-.943-16.654-6.004.339.943 16.653z"
    fill="#6B9EFF"/>
  <path d="M31.093 12.82l-6.004.338.071 1.257 6.004-.339-.072-1.257z" fill="#ADD5D8"/>
</svg>
