<svg width="40" height="40" fill="none" xmlns="http://www.w3.org/2000/svg">
  <path d="M8.787 31.095l2.58-9.034 7.072 7.07-9.034 2.582a.5.5 0 01-.618-.618z" fill="#EDD5B2"/>
  <path d="M9.247 29.485c.354.707 1.06 1.414 1.768 1.768l-1.61.46a.5.5 0 01-.618-.618l.46-1.61z" fill="#353535"/>
  <path d="M11.343 22.084L24.095 9.333l7.071 7.07-12.752 12.753c-3.385-1.564-5.507-3.686-7.07-7.072z" fill="#FFA552"/>
  <path d="M22.228 11.203l3.284-3.284a2 2 0 012.828 0l4.243 4.242a2 2 0 010 2.829L29.3 18.273c-2.81-2.139-4.931-4.26-7.07-7.07z" fill="#FFA552"/>
</svg>
