<svg width="167" height="56" viewBox="0 0 167 56" fill="none" xmlns="http://www.w3.org/2000/svg">
<path d="M28.4688 14.4199H34.3868L42.7561 33.4268L51.0852 14.4199H57.0033V40.4058H51.2055V26.4821L45.3314 40.4058H40.133L34.2589 26.4821V40.4058H28.4688V14.4199Z" fill="#FFA552"/>
<path d="M7.1771 39.6787C-2.35095 34.8989 -2.4025 19.9166 7.1771 15.2645C13.3739 12.1174 22.9497 13.7901 25.4639 22.4343L19.5955 23.676C18.5016 20.0424 13.7118 18.3182 9.90131 20.4926C8.69522 21.22 7.69522 22.2434 6.99625 23.4655C6.29728 24.6876 5.92253 26.0679 5.90759 27.4754C5.90759 30.6245 7.43483 33.4913 10.2679 34.752C13.477 36.1768 18.2286 35.1087 19.5955 31.273L25.4238 32.5147C23.0184 41.0482 13.4636 42.6447 7.1771 39.6787Z" fill="#FFA552"/>
<path d="M62.2148 14.4199H68.3429V31.8093L79.3944 14.4199H86.0016V40.4058H79.8755V23.0183L68.8221 40.4096H62.2148V14.4199Z" fill="#FFA552"/>
<path d="M96.9721 19.2455H89.9258V14.4199H110.148V19.2455H103.1V40.4058H96.9721V19.2455Z" fill="#FFA552"/>
<path d="M143.812 14.4199H166.757V40.4058H160.631V19.2455H149.941V40.4058H143.814L143.812 14.4199Z" fill="#FFA552"/>
<path d="M137.739 45.3938L128.958 29.6504H128.444H124.532H124.019L114.855 45.3938L120.745 45.3804C120.745 45.3804 122.238 42.5422 123.528 40.4022V55.9987H129.064V40.4022C130.353 42.5365 131.848 45.3804 131.848 45.3804L137.739 45.3938Z" fill="#FFA552"/>
<path d="M118.612 27.4069L121.01 21.599H131.744L133.997 27.4069H140.384L129.142 0H123.606L112.203 27.4069H118.612ZM126.382 6.92944L129.906 16.7409H122.858L126.382 6.92944Z" fill="#FFA552"/>
</svg>
