<svg width="40" height="40" fill="none" xmlns="http://www.w3.org/2000/svg">
  <path d="M33.427 16H6.573C5.704 16 5 16.672 5 17.5S5.704 19 6.573 19h26.854c.869 0 1.573-.672 1.573-1.5s-.704-1.5-1.573-1.5z" fill="#ADD5D8"/>
  <path fill-rule="evenodd" clip-rule="evenodd" d="M9.75 30.375L7 19h26l-2.75 11.375a2.15 2.15 0 01-.737 1.17 2.042 2.042 0 01-1.28.455H11.766c-.464 0-.915-.16-1.28-.454a2.15 2.15 0 01-.738-1.17zM15 20a1 1 0 011 1v8a1 1 0 11-2 0v-8a1 1 0 011-1zm6 1a1 1 0 10-2 0v8a1 1 0 102 0v-8zm5 0a1 1 0 10-2 0v8a1 1 0 102 0v-8z" fill="#ADD5D8"/>
  <path fill-rule="evenodd" clip-rule="evenodd" d="M16.868 8.5a1 1 0 01.366 1.366l-4 6.928a1 1 0 01-1.732-1l4-6.928a1 1 0 011.366-.366zM22.866 8.5a1 1 0 00-.366 1.366l4 6.928a1 1 0 101.732-1l-4-6.928a1 1 0 00-1.366-.366z" fill="#6B9EFF"/>
</svg>
