<svg width="40" height="40" fill="none" xmlns="http://www.w3.org/2000/svg">
  <path fill-rule="evenodd" clip-rule="evenodd"
        d="M14.473 13a5.878 5.878 0 0111.054 0H14.473zm-2.221 0a8.003 8.003 0 0115.496 0h3.056c1.213 0 2.196.976 2.196 2.18v13.64c0 1.204-.983 2.18-2.196 2.18H9.196A2.189 2.189 0 017 28.82V15.18C7 13.977 7.983 13 9.196 13h3.056z"
        fill="#6B9EFF"/>
  <path d="M17 17.902a.5.5 0 01.765-.424l6.557 4.098a.5.5 0 010 .848l-6.557 4.098a.5.5 0 01-.765-.424v-8.196z"
        fill="#fff"/>
</svg>
