<svg width="40" height="40" viewBox="0 0 40 40" fill="none" xmlns="http://www.w3.org/2000/svg">
<path d="M19.8379 26.3532L14.9379 31.2532C13.8177 31.2532 13.538 30.7861 13.5381 30.5525L14.9379 26.3532C14.3777 26.9138 10.9712 27.053 9.3379 27.0525C6.53774 26.4925 6.77117 24.0192 7.2379 22.8525C3.8779 22.2925 4.90456 17.9525 5.8379 15.8525C6.3979 12.4919 8.40456 12.1189 9.3379 12.3525C9.8979 8.43249 12.8379 8.85249 14.2379 9.55249C15.3579 6.75249 18.4379 7.45285 19.8379 8.15302C22.6379 5.91302 24.7379 7.6865 25.4379 8.85324C28.7979 7.17324 30.5712 10.0199 31.0379 11.6532C34.3979 12.2132 34.3046 15.1532 33.8379 16.5532C37.1979 22.1532 32.4379 24.4866 29.6379 24.9532C27.9579 27.1932 22.4046 26.8199 19.8379 26.3532Z" fill="#FF6871"/>
<path fill-rule="evenodd" clip-rule="evenodd" d="M17.6257 13.2232C17.7239 13.0019 17.9428 12.8594 18.1854 12.8594H23.0224C23.4772 12.8594 23.7737 13.3384 23.57 13.7459L22.1941 16.4976H24.2303C24.7761 16.4976 25.0489 17.1573 24.6633 17.543L17.4153 24.791C16.9581 25.2482 16.1965 24.7776 16.4014 24.1646L17.9465 19.5295H15.7648C15.6627 19.5295 15.5623 19.504 15.4727 19.4553C15.383 19.4067 15.3069 19.3364 15.2513 19.2508C15.1957 19.1653 15.1623 19.0672 15.1543 18.9655C15.1462 18.8638 15.1637 18.7617 15.2051 18.6684L17.6257 13.2232Z" fill="white"/>
<path fill-rule="evenodd" clip-rule="evenodd" d="M24.6294 7.59357C25.1041 7.96981 25.7301 8.13333 26.3267 8.0287C26.6977 7.96363 27.0557 7.94807 27.4 7.97799C28.1972 8.04727 28.8723 8.35623 29.4231 8.77805C30.1084 9.30285 30.61 10.0074 30.9513 10.6837C31.1624 11.1021 31.5301 11.4225 31.9658 11.5949C33.1721 12.072 33.8763 12.9186 34.2092 13.8829C34.4859 14.6843 34.4925 15.5237 34.3839 16.2286C34.3285 16.5885 34.3736 16.9598 34.5367 17.2854C35.124 18.4577 35.3842 19.5267 35.3674 20.4978C35.3468 21.6878 34.911 22.6698 34.2599 23.4499C33.1828 24.7402 31.5264 25.4729 30.1458 25.817C29.8513 25.8904 29.5856 26.0478 29.3551 26.2455C28.8733 26.6587 28.2829 26.9549 27.6601 27.168C26.785 27.4674 25.7871 27.6232 24.7917 27.6897C23.2783 27.7909 21.7078 27.6898 20.4596 27.5296C20.0137 27.4723 19.5631 27.6157 19.2452 27.9336L15.1075 32.0713C14.9762 32.2026 14.7981 32.2763 14.6125 32.2763C13.3603 32.2763 12.5122 31.7085 12.5127 30.8752C12.5127 30.8001 12.5249 30.7254 12.5486 30.6542L13.116 28.952C13.2932 28.4206 12.8375 27.8814 12.2798 27.9333C11.1261 28.0407 9.84328 28.0758 9.01228 28.0756C8.96626 28.0755 8.92035 28.071 8.87522 28.062C8.07465 27.9019 7.44268 27.5945 6.96858 27.1669C6.49332 26.7382 6.21092 26.2194 6.06329 25.6916C5.98615 25.4158 5.94533 25.1368 5.93207 24.8632C5.89853 24.1705 5.52192 23.5108 5.00993 23.043C4.8451 22.8924 4.69879 22.7247 4.57089 22.5414C4.10492 21.8734 3.92882 21.0641 3.90288 20.2761C3.85487 18.818 4.31422 17.2247 4.77245 16.1246C4.81472 16.0231 4.84623 15.9178 4.86723 15.8099C5.1911 14.1459 5.87919 13.0964 6.7198 12.5052C6.94127 12.3494 7.16775 12.2295 7.39298 12.14C7.98288 11.9056 8.52054 11.4801 8.77644 10.8992C9.2617 9.79764 10.031 9.15043 10.9442 8.87323C11.4553 8.71807 11.9775 8.69025 12.4697 8.73943C13.1268 8.80509 13.7937 8.54645 14.2827 8.10263C14.406 7.99068 14.5355 7.88912 14.6705 7.79765C15.2594 7.39868 15.916 7.21668 16.5513 7.16551C17.3004 7.10517 18.0492 7.22381 18.6955 7.41184C19.1569 7.54606 19.6553 7.487 20.0789 7.2601C21.259 6.62794 22.3625 6.57651 23.3141 6.88221C23.8188 7.04436 24.259 7.3 24.6294 7.59357ZM30.5899 23.6521C30.5944 23.9156 30.8496 24.1308 31.0916 24.0263C31.8881 23.6821 32.6489 23.195 33.1851 22.5527C33.654 21.9911 33.9531 21.3106 33.9676 20.4736C33.9822 19.626 33.7055 18.5585 32.9123 17.2364C32.8071 17.0612 32.7838 16.8488 32.8484 16.6549C33.05 16.0501 33.1588 15.1304 32.8858 14.3397C32.6356 13.6149 32.0377 12.9068 30.5974 12.6668C30.3309 12.6223 30.1137 12.4284 30.0394 12.1686C29.8317 11.4414 29.3355 10.4744 28.5719 9.88955C28.201 9.60553 27.7737 9.41575 27.2788 9.37273C26.783 9.32965 26.171 9.42968 25.4255 9.8024C25.0984 9.96598 24.7004 9.85009 24.5122 9.53643C24.2246 9.05692 23.6458 8.45926 22.8859 8.21512C22.1779 7.98767 21.1935 8.02775 19.9498 9.02269C19.7366 9.19327 19.4436 9.22429 19.1994 9.10215C18.5734 8.78907 17.5829 8.48695 16.6637 8.56099C16.214 8.59721 15.8031 8.72136 15.4557 8.95669C15.1134 9.18863 14.7952 9.55363 14.5624 10.1355C14.4103 10.5158 13.9657 10.6848 13.5994 10.5016C12.9878 10.1958 12.0955 9.9868 11.3508 10.2129C10.6961 10.4116 9.95765 11.0093 9.70546 12.7745C9.64675 13.1855 9.24529 13.4554 8.84255 13.3546C8.55398 13.2824 8.03165 13.2941 7.5252 13.6503C7.03058 13.9982 6.46137 14.74 6.20298 16.2906C6.19326 16.3489 6.17618 16.4058 6.15217 16.4598C5.70749 17.4604 5.2603 18.9598 5.30212 20.23C5.32284 20.8595 5.46174 21.3714 5.7191 21.7404C5.96194 22.0885 6.35338 22.3727 7.02758 22.4851C7.46838 22.5585 7.72841 23.0206 7.56242 23.4356C7.36493 23.9292 7.2328 24.6754 7.41154 25.3145C7.49723 25.6209 7.65234 25.8983 7.90627 26.1273C8.12979 26.3289 8.45606 26.5165 8.93672 26.6405C9.03424 26.6657 9.13495 26.6755 9.23566 26.6748C10.033 26.6692 11.1493 26.6325 12.15 26.5394C12.7008 26.4881 13.1985 26.4213 13.5825 26.338C13.775 26.2963 13.9229 26.2538 14.0276 26.2137C14.095 26.183 14.1735 26.1887 14.2358 26.2287L14.6061 26.4667C15.0005 26.7202 15.1728 27.209 15.0245 27.6538L14.0574 30.5549C14.0144 30.684 14.0494 30.8159 14.183 30.8412C14.2592 30.8556 14.3675 30.8313 14.4224 30.7765L19.0175 26.1813C19.1799 26.0189 19.4117 25.9465 19.6377 25.9876C20.8797 26.2134 22.8504 26.4164 24.6983 26.2929C25.622 26.2311 26.488 26.0894 27.2068 25.8434C27.9309 25.5956 28.4482 25.2621 28.7525 24.8563C29.0908 24.4052 29.1959 24.0119 29.1901 23.6761C29.1842 23.331 29.0596 22.981 28.8314 22.6316C28.5024 22.1278 27.996 21.6847 27.5033 21.3554C27.1819 21.1406 27.0396 20.7221 27.2125 20.3763C27.3854 20.0305 27.8075 19.8885 28.134 20.0956C28.788 20.5107 29.5124 21.1139 30.0036 21.866C30.3354 22.3741 30.5783 22.9778 30.5899 23.6521Z" fill="#FF6871"/>
</svg>
