<svg width="269" height="43" viewBox="0 0 269 43" fill="none" xmlns="http://www.w3.org/2000/svg">
<mask id="path-1-outside-1_23_239" maskUnits="userSpaceOnUse" x="-0.900002" y="-0.900024" width="270" height="44" fill="black">
<rect fill="white" x="-0.900002" y="-0.900024" width="270" height="44"/>
<path d="M26.2216 34.9967C22.4718 34.9967 19.008 34.5994 15.8302 33.8049C12.6524 33.0103 9.88767 31.8662 7.53608 30.3724C5.1845 28.8786 3.35726 27.0829 2.05435 24.9853C0.751451 22.8559 0.0999985 20.4723 0.0999985 17.8344V17.2623C0.0999985 13.7345 1.30757 10.6834 3.72271 8.10906C6.13785 5.53471 9.554 3.56422 13.9712 2.19759C18.4201 0.79918 23.6317 0.0999756 29.606 0.0999756C36.8196 0.0999756 42.9211 1.00576 47.9102 2.81734C52.8994 4.59714 56.6492 7.10792 59.1597 10.3497L44.3352 14.7356C43.0641 13.4008 41.205 12.3837 38.7581 11.6845C36.343 10.9536 33.2923 10.5881 29.606 10.5881C24.9664 10.5881 21.3119 11.1919 18.6425 12.3996C15.9732 13.5756 14.6385 15.1965 14.6385 17.2623V17.8344C14.6385 19.9002 15.9732 21.537 18.6425 22.7447C21.3119 23.9206 24.9664 24.5086 29.606 24.5086C31.4491 24.5086 33.3558 24.4133 35.3261 24.2226C37.2963 24.0001 39.1553 23.6982 40.9031 23.3168C42.6509 22.9036 44.0968 22.411 45.2409 21.8389H29.463V16.1181H59.1597V34.2339H47.7196L48.1962 27.0829H47.2905C46.2101 28.7356 44.6371 30.1499 42.5715 31.3259C40.5059 32.5018 38.0749 33.4076 35.2784 34.0432C32.5137 34.6789 29.4948 34.9967 26.2216 34.9967Z"/>
<path d="M89.2377 34.9967C83.1999 34.9967 77.9565 34.3134 73.5075 32.9467C69.0904 31.5483 65.6742 29.562 63.2591 26.9876C60.8757 24.4133 59.684 21.3622 59.684 17.8344V17.2623C59.684 13.7027 60.8757 10.6516 63.2591 8.10906C65.6742 5.53471 69.0904 3.56422 73.5075 2.19759C77.9565 0.79918 83.1999 0.0999756 89.2377 0.0999756C95.3073 0.0999756 100.551 0.79918 104.968 2.19759C109.385 3.56422 112.785 5.53471 115.169 8.10906C117.584 10.6516 118.791 13.7027 118.791 17.2623V17.8344C118.791 21.3622 117.584 24.4133 115.169 26.9876C112.785 29.562 109.385 31.5483 104.968 32.9467C100.551 34.3134 95.3073 34.9967 89.2377 34.9967ZM89.2377 24.0319C93.5913 24.0319 97.0233 23.4916 99.5338 22.411C102.076 21.2986 103.347 19.7731 103.347 17.8344V17.2623C103.347 15.3236 102.076 13.8139 99.5338 12.7333C97.0233 11.621 93.5913 11.0648 89.2377 11.0648C84.9159 11.0648 81.4838 11.621 78.9416 12.7333C76.3993 13.8139 75.1282 15.3236 75.1282 17.2623V17.8344C75.1282 19.7731 76.3993 21.2986 78.9416 22.411C81.4838 23.4916 84.9159 24.0319 89.2377 24.0319Z"/>
<path d="M115.884 31.8503L128.086 8.01371H136.333L141.862 31.8503H133.616L130.661 19.0739L124.13 31.8503H115.884Z"/>
<path d="M163.027 8.01371H169.748L166.364 31.8503H159.691L159.881 30.277C159.786 30.3406 159.691 30.4201 159.595 30.5154C159.532 30.579 159.452 30.6425 159.357 30.7061C157.704 31.8503 155.782 32.4223 153.589 32.4223C150.348 32.4223 147.821 31.2146 146.01 28.7992C144.199 26.352 143.531 23.3962 144.008 19.932C144.485 16.4995 145.978 13.5438 148.489 11.0648C150.936 8.64935 153.796 7.44163 157.069 7.44163C159.166 7.44163 160.866 8.0296 162.169 9.20554C162.265 9.30088 162.36 9.41212 162.455 9.53925C162.582 9.63459 162.694 9.72994 162.789 9.82529L163.027 8.01371ZM156.735 15.4507C155.591 15.4507 154.527 15.8957 153.542 16.7856C152.588 17.6437 152.016 18.6925 151.825 19.932C151.635 21.1397 151.905 22.1885 152.636 23.0784C153.367 23.9683 154.32 24.4133 155.496 24.4133C156.64 24.4133 157.704 23.9683 158.69 23.0784C159.166 22.6335 159.532 22.1567 159.786 21.6482C160.072 21.1079 160.263 20.5358 160.358 19.932C160.453 19.2963 160.421 18.7243 160.263 18.2158C160.135 17.6755 159.897 17.1987 159.548 16.7856C158.817 15.8957 157.879 15.4507 156.735 15.4507Z"/>
<path d="M170.483 31.8503L173.819 8.01371H181.542L180.398 15.8798H185.307L186.404 8.01371H194.126L190.741 31.8503H183.067L184.163 23.9842H179.254L178.157 31.8503H170.483Z"/>
<path d="M207.174 15.6891C206.189 15.6891 205.347 16.0228 204.648 16.6902C203.885 17.3894 203.44 18.2316 203.313 19.2169C203.186 20.2021 203.393 21.0444 203.933 21.7436C204.505 22.4428 205.252 22.7924 206.173 22.7924C207.127 22.7924 207.969 22.4428 208.7 21.7436C209.462 21.0444 209.907 20.2021 210.034 19.2169C210.161 18.2316 209.955 17.3894 209.415 16.6902C208.874 16.0228 208.128 15.6891 207.174 15.6891ZM207.842 7.53698C209.367 7.53698 210.638 7.90247 211.655 8.63346C211.718 8.66524 211.782 8.71291 211.846 8.77648C211.941 8.80826 212.004 8.85593 212.036 8.9195L212.132 8.06138H219.282L216.374 29.0375C215.802 33.1692 214.324 36.3792 211.941 38.6675C209.558 40.9558 206.602 42.1 203.075 42.1C198.054 42.1 194.59 41.0829 192.683 39.0489L197.259 32.47C199.134 33.8684 201.279 34.5676 203.694 34.5676C205.156 34.5676 206.253 34.218 206.984 33.5188C207.778 32.7878 208.286 31.6596 208.509 30.134V30.0387C208.477 30.0705 208.445 30.1022 208.414 30.134C208.414 30.134 208.398 30.134 208.366 30.134C207.317 30.6425 206.046 30.8968 204.553 30.8968C201.534 30.8968 199.166 29.7685 197.45 27.512C195.734 25.2555 195.114 22.4904 195.591 19.2169C196.068 15.9116 197.466 13.1465 199.786 10.9218C202.137 8.66524 204.823 7.53698 207.842 7.53698Z"/>
<path d="M223.11 8.01371H230.832L229.069 20.5994C228.91 21.7118 229.116 22.6017 229.688 23.2691C230.292 23.9683 231.055 24.3179 231.976 24.3179C232.93 24.3179 233.804 23.9683 234.598 23.2691C235.361 22.6017 235.822 21.7118 235.98 20.5994L237.744 8.01371H245.466L242.082 31.8503H234.932L235.17 30.0864C235.043 30.2135 234.916 30.3406 234.789 30.4677C234.693 30.5631 234.566 30.6584 234.407 30.7538C232.946 31.8662 231.214 32.4223 229.212 32.4223C226.193 32.4223 224.016 31.2782 222.681 28.9899C222.014 27.8457 221.569 26.5427 221.347 25.0807C221.124 23.6187 221.14 21.9978 221.394 20.218L223.11 8.01371Z"/>
<path d="M250.225 24.5086C250.129 24.4133 250.034 24.3179 249.939 24.2226C249.843 24.1272 249.748 24.016 249.653 23.8889C248.159 22.0455 247.603 19.8525 247.984 17.31C248.366 14.7038 249.526 12.5109 251.464 10.7311C253.434 8.9195 255.659 8.01371 258.138 8.01371H268.1L264.716 31.8503H257.041L257.756 26.6062H257.518C257.518 26.6062 257.502 26.6062 257.47 26.6062L254.42 31.8503H245.935L250.225 24.5086ZM259.234 16.1181H256.994C256.644 16.1181 256.358 16.2294 256.136 16.4518C255.85 16.7379 255.691 17.0239 255.659 17.31C255.595 17.6596 255.659 17.9456 255.85 18.1681C256.04 18.3906 256.31 18.5018 256.66 18.5018H258.9L259.234 16.1181Z"/>
</mask>
<path d="M26.2216 34.9967C22.4718 34.9967 19.008 34.5994 15.8302 33.8049C12.6524 33.0103 9.88767 31.8662 7.53608 30.3724C5.1845 28.8786 3.35726 27.0829 2.05435 24.9853C0.751451 22.8559 0.0999985 20.4723 0.0999985 17.8344V17.2623C0.0999985 13.7345 1.30757 10.6834 3.72271 8.10906C6.13785 5.53471 9.554 3.56422 13.9712 2.19759C18.4201 0.79918 23.6317 0.0999756 29.606 0.0999756C36.8196 0.0999756 42.9211 1.00576 47.9102 2.81734C52.8994 4.59714 56.6492 7.10792 59.1597 10.3497L44.3352 14.7356C43.0641 13.4008 41.205 12.3837 38.7581 11.6845C36.343 10.9536 33.2923 10.5881 29.606 10.5881C24.9664 10.5881 21.3119 11.1919 18.6425 12.3996C15.9732 13.5756 14.6385 15.1965 14.6385 17.2623V17.8344C14.6385 19.9002 15.9732 21.537 18.6425 22.7447C21.3119 23.9206 24.9664 24.5086 29.606 24.5086C31.4491 24.5086 33.3558 24.4133 35.3261 24.2226C37.2963 24.0001 39.1553 23.6982 40.9031 23.3168C42.6509 22.9036 44.0968 22.411 45.2409 21.8389H29.463V16.1181H59.1597V34.2339H47.7196L48.1962 27.0829H47.2905C46.2101 28.7356 44.6371 30.1499 42.5715 31.3259C40.5059 32.5018 38.0749 33.4076 35.2784 34.0432C32.5137 34.6789 29.4948 34.9967 26.2216 34.9967Z" fill="#B7CCE5"/>
<path d="M89.2377 34.9967C83.1999 34.9967 77.9565 34.3134 73.5075 32.9467C69.0904 31.5483 65.6742 29.562 63.2591 26.9876C60.8757 24.4133 59.684 21.3622 59.684 17.8344V17.2623C59.684 13.7027 60.8757 10.6516 63.2591 8.10906C65.6742 5.53471 69.0904 3.56422 73.5075 2.19759C77.9565 0.79918 83.1999 0.0999756 89.2377 0.0999756C95.3073 0.0999756 100.551 0.79918 104.968 2.19759C109.385 3.56422 112.785 5.53471 115.169 8.10906C117.584 10.6516 118.791 13.7027 118.791 17.2623V17.8344C118.791 21.3622 117.584 24.4133 115.169 26.9876C112.785 29.562 109.385 31.5483 104.968 32.9467C100.551 34.3134 95.3073 34.9967 89.2377 34.9967ZM89.2377 24.0319C93.5913 24.0319 97.0233 23.4916 99.5338 22.411C102.076 21.2986 103.347 19.7731 103.347 17.8344V17.2623C103.347 15.3236 102.076 13.8139 99.5338 12.7333C97.0233 11.621 93.5913 11.0648 89.2377 11.0648C84.9159 11.0648 81.4838 11.621 78.9416 12.7333C76.3993 13.8139 75.1282 15.3236 75.1282 17.2623V17.8344C75.1282 19.7731 76.3993 21.2986 78.9416 22.411C81.4838 23.4916 84.9159 24.0319 89.2377 24.0319Z" fill="#B7CCE5"/>
<path d="M115.884 31.8503L128.086 8.01371H136.333L141.862 31.8503H133.616L130.661 19.0739L124.13 31.8503H115.884Z" fill="#5B2330"/>
<path d="M163.027 8.01371H169.748L166.364 31.8503H159.691L159.881 30.277C159.786 30.3406 159.691 30.4201 159.595 30.5154C159.532 30.579 159.452 30.6425 159.357 30.7061C157.704 31.8503 155.782 32.4223 153.589 32.4223C150.348 32.4223 147.821 31.2146 146.01 28.7992C144.199 26.352 143.531 23.3962 144.008 19.932C144.485 16.4995 145.978 13.5438 148.489 11.0648C150.936 8.64935 153.796 7.44163 157.069 7.44163C159.166 7.44163 160.866 8.0296 162.169 9.20554C162.265 9.30088 162.36 9.41212 162.455 9.53925C162.582 9.63459 162.694 9.72994 162.789 9.82529L163.027 8.01371ZM156.735 15.4507C155.591 15.4507 154.527 15.8957 153.542 16.7856C152.588 17.6437 152.016 18.6925 151.825 19.932C151.635 21.1397 151.905 22.1885 152.636 23.0784C153.367 23.9683 154.32 24.4133 155.496 24.4133C156.64 24.4133 157.704 23.9683 158.69 23.0784C159.166 22.6335 159.532 22.1567 159.786 21.6482C160.072 21.1079 160.263 20.5358 160.358 19.932C160.453 19.2963 160.421 18.7243 160.263 18.2158C160.135 17.6755 159.897 17.1987 159.548 16.7856C158.817 15.8957 157.879 15.4507 156.735 15.4507Z" fill="#5B2330"/>
<path d="M170.483 31.8503L173.819 8.01371H181.542L180.398 15.8798H185.307L186.404 8.01371H194.126L190.741 31.8503H183.067L184.163 23.9842H179.254L178.157 31.8503H170.483Z" fill="#5B2330"/>
<path d="M207.174 15.6891C206.189 15.6891 205.347 16.0228 204.648 16.6902C203.885 17.3894 203.44 18.2316 203.313 19.2169C203.186 20.2021 203.393 21.0444 203.933 21.7436C204.505 22.4428 205.252 22.7924 206.173 22.7924C207.127 22.7924 207.969 22.4428 208.7 21.7436C209.462 21.0444 209.907 20.2021 210.034 19.2169C210.161 18.2316 209.955 17.3894 209.415 16.6902C208.874 16.0228 208.128 15.6891 207.174 15.6891ZM207.842 7.53698C209.367 7.53698 210.638 7.90247 211.655 8.63346C211.718 8.66524 211.782 8.71291 211.846 8.77648C211.941 8.80826 212.004 8.85593 212.036 8.9195L212.132 8.06138H219.282L216.374 29.0375C215.802 33.1692 214.324 36.3792 211.941 38.6675C209.558 40.9558 206.602 42.1 203.075 42.1C198.054 42.1 194.59 41.0829 192.683 39.0489L197.259 32.47C199.134 33.8684 201.279 34.5676 203.694 34.5676C205.156 34.5676 206.253 34.218 206.984 33.5188C207.778 32.7878 208.286 31.6596 208.509 30.134V30.0387C208.477 30.0705 208.445 30.1022 208.414 30.134C208.414 30.134 208.398 30.134 208.366 30.134C207.317 30.6425 206.046 30.8968 204.553 30.8968C201.534 30.8968 199.166 29.7685 197.45 27.512C195.734 25.2555 195.114 22.4904 195.591 19.2169C196.068 15.9116 197.466 13.1465 199.786 10.9218C202.137 8.66524 204.823 7.53698 207.842 7.53698Z" fill="#5B2330"/>
<path d="M223.11 8.01371H230.832L229.069 20.5994C228.91 21.7118 229.116 22.6017 229.688 23.2691C230.292 23.9683 231.055 24.3179 231.976 24.3179C232.93 24.3179 233.804 23.9683 234.598 23.2691C235.361 22.6017 235.822 21.7118 235.98 20.5994L237.744 8.01371H245.466L242.082 31.8503H234.932L235.17 30.0864C235.043 30.2135 234.916 30.3406 234.789 30.4677C234.693 30.5631 234.566 30.6584 234.407 30.7538C232.946 31.8662 231.214 32.4223 229.212 32.4223C226.193 32.4223 224.016 31.2782 222.681 28.9899C222.014 27.8457 221.569 26.5427 221.347 25.0807C221.124 23.6187 221.14 21.9978 221.394 20.218L223.11 8.01371Z" fill="#5B2330"/>
<path d="M250.225 24.5086C250.129 24.4133 250.034 24.3179 249.939 24.2226C249.843 24.1272 249.748 24.016 249.653 23.8889C248.159 22.0455 247.603 19.8525 247.984 17.31C248.366 14.7038 249.526 12.5109 251.464 10.7311C253.434 8.9195 255.659 8.01371 258.138 8.01371H268.1L264.716 31.8503H257.041L257.756 26.6062H257.518C257.518 26.6062 257.502 26.6062 257.47 26.6062L254.42 31.8503H245.935L250.225 24.5086ZM259.234 16.1181H256.994C256.644 16.1181 256.358 16.2294 256.136 16.4518C255.85 16.7379 255.691 17.0239 255.659 17.31C255.595 17.6596 255.659 17.9456 255.85 18.1681C256.04 18.3906 256.31 18.5018 256.66 18.5018H258.9L259.234 16.1181Z" fill="#5B2330"/>
<path d="M26.2216 34.9967C22.4718 34.9967 19.008 34.5994 15.8302 33.8049C12.6524 33.0103 9.88767 31.8662 7.53608 30.3724C5.1845 28.8786 3.35726 27.0829 2.05435 24.9853C0.751451 22.8559 0.0999985 20.4723 0.0999985 17.8344V17.2623C0.0999985 13.7345 1.30757 10.6834 3.72271 8.10906C6.13785 5.53471 9.554 3.56422 13.9712 2.19759C18.4201 0.79918 23.6317 0.0999756 29.606 0.0999756C36.8196 0.0999756 42.9211 1.00576 47.9102 2.81734C52.8994 4.59714 56.6492 7.10792 59.1597 10.3497L44.3352 14.7356C43.0641 13.4008 41.205 12.3837 38.7581 11.6845C36.343 10.9536 33.2923 10.5881 29.606 10.5881C24.9664 10.5881 21.3119 11.1919 18.6425 12.3996C15.9732 13.5756 14.6385 15.1965 14.6385 17.2623V17.8344C14.6385 19.9002 15.9732 21.537 18.6425 22.7447C21.3119 23.9206 24.9664 24.5086 29.606 24.5086C31.4491 24.5086 33.3558 24.4133 35.3261 24.2226C37.2963 24.0001 39.1553 23.6982 40.9031 23.3168C42.6509 22.9036 44.0968 22.411 45.2409 21.8389H29.463V16.1181H59.1597V34.2339H47.7196L48.1962 27.0829H47.2905C46.2101 28.7356 44.6371 30.1499 42.5715 31.3259C40.5059 32.5018 38.0749 33.4076 35.2784 34.0432C32.5137 34.6789 29.4948 34.9967 26.2216 34.9967Z" stroke="#6A657B" stroke-width="0.2" mask="url(#path-1-outside-1_23_239)"/>
<path d="M89.2377 34.9967C83.1999 34.9967 77.9565 34.3134 73.5075 32.9467C69.0904 31.5483 65.6742 29.562 63.2591 26.9876C60.8757 24.4133 59.684 21.3622 59.684 17.8344V17.2623C59.684 13.7027 60.8757 10.6516 63.2591 8.10906C65.6742 5.53471 69.0904 3.56422 73.5075 2.19759C77.9565 0.79918 83.1999 0.0999756 89.2377 0.0999756C95.3073 0.0999756 100.551 0.79918 104.968 2.19759C109.385 3.56422 112.785 5.53471 115.169 8.10906C117.584 10.6516 118.791 13.7027 118.791 17.2623V17.8344C118.791 21.3622 117.584 24.4133 115.169 26.9876C112.785 29.562 109.385 31.5483 104.968 32.9467C100.551 34.3134 95.3073 34.9967 89.2377 34.9967ZM89.2377 24.0319C93.5913 24.0319 97.0233 23.4916 99.5338 22.411C102.076 21.2986 103.347 19.7731 103.347 17.8344V17.2623C103.347 15.3236 102.076 13.8139 99.5338 12.7333C97.0233 11.621 93.5913 11.0648 89.2377 11.0648C84.9159 11.0648 81.4838 11.621 78.9416 12.7333C76.3993 13.8139 75.1282 15.3236 75.1282 17.2623V17.8344C75.1282 19.7731 76.3993 21.2986 78.9416 22.411C81.4838 23.4916 84.9159 24.0319 89.2377 24.0319Z" stroke="#6A657B" stroke-width="0.2" mask="url(#path-1-outside-1_23_239)"/>
<path d="M115.884 31.8503L128.086 8.01371H136.333L141.862 31.8503H133.616L130.661 19.0739L124.13 31.8503H115.884Z" stroke="#6A657B" stroke-width="0.2" mask="url(#path-1-outside-1_23_239)"/>
<path d="M163.027 8.01371H169.748L166.364 31.8503H159.691L159.881 30.277C159.786 30.3406 159.691 30.4201 159.595 30.5154C159.532 30.579 159.452 30.6425 159.357 30.7061C157.704 31.8503 155.782 32.4223 153.589 32.4223C150.348 32.4223 147.821 31.2146 146.01 28.7992C144.199 26.352 143.531 23.3962 144.008 19.932C144.485 16.4995 145.978 13.5438 148.489 11.0648C150.936 8.64935 153.796 7.44163 157.069 7.44163C159.166 7.44163 160.866 8.0296 162.169 9.20554C162.265 9.30088 162.36 9.41212 162.455 9.53925C162.582 9.63459 162.694 9.72994 162.789 9.82529L163.027 8.01371ZM156.735 15.4507C155.591 15.4507 154.527 15.8957 153.542 16.7856C152.588 17.6437 152.016 18.6925 151.825 19.932C151.635 21.1397 151.905 22.1885 152.636 23.0784C153.367 23.9683 154.32 24.4133 155.496 24.4133C156.64 24.4133 157.704 23.9683 158.69 23.0784C159.166 22.6335 159.532 22.1567 159.786 21.6482C160.072 21.1079 160.263 20.5358 160.358 19.932C160.453 19.2963 160.421 18.7243 160.263 18.2158C160.135 17.6755 159.897 17.1987 159.548 16.7856C158.817 15.8957 157.879 15.4507 156.735 15.4507Z" stroke="#6A657B" stroke-width="0.2" mask="url(#path-1-outside-1_23_239)"/>
<path d="M170.483 31.8503L173.819 8.01371H181.542L180.398 15.8798H185.307L186.404 8.01371H194.126L190.741 31.8503H183.067L184.163 23.9842H179.254L178.157 31.8503H170.483Z" stroke="#6A657B" stroke-width="0.2" mask="url(#path-1-outside-1_23_239)"/>
<path d="M207.174 15.6891C206.189 15.6891 205.347 16.0228 204.648 16.6902C203.885 17.3894 203.44 18.2316 203.313 19.2169C203.186 20.2021 203.393 21.0444 203.933 21.7436C204.505 22.4428 205.252 22.7924 206.173 22.7924C207.127 22.7924 207.969 22.4428 208.7 21.7436C209.462 21.0444 209.907 20.2021 210.034 19.2169C210.161 18.2316 209.955 17.3894 209.415 16.6902C208.874 16.0228 208.128 15.6891 207.174 15.6891ZM207.842 7.53698C209.367 7.53698 210.638 7.90247 211.655 8.63346C211.718 8.66524 211.782 8.71291 211.846 8.77648C211.941 8.80826 212.004 8.85593 212.036 8.9195L212.132 8.06138H219.282L216.374 29.0375C215.802 33.1692 214.324 36.3792 211.941 38.6675C209.558 40.9558 206.602 42.1 203.075 42.1C198.054 42.1 194.59 41.0829 192.683 39.0489L197.259 32.47C199.134 33.8684 201.279 34.5676 203.694 34.5676C205.156 34.5676 206.253 34.218 206.984 33.5188C207.778 32.7878 208.286 31.6596 208.509 30.134V30.0387C208.477 30.0705 208.445 30.1022 208.414 30.134C208.414 30.134 208.398 30.134 208.366 30.134C207.317 30.6425 206.046 30.8968 204.553 30.8968C201.534 30.8968 199.166 29.7685 197.45 27.512C195.734 25.2555 195.114 22.4904 195.591 19.2169C196.068 15.9116 197.466 13.1465 199.786 10.9218C202.137 8.66524 204.823 7.53698 207.842 7.53698Z" stroke="#6A657B" stroke-width="0.2" mask="url(#path-1-outside-1_23_239)"/>
<path d="M223.11 8.01371H230.832L229.069 20.5994C228.91 21.7118 229.116 22.6017 229.688 23.2691C230.292 23.9683 231.055 24.3179 231.976 24.3179C232.93 24.3179 233.804 23.9683 234.598 23.2691C235.361 22.6017 235.822 21.7118 235.98 20.5994L237.744 8.01371H245.466L242.082 31.8503H234.932L235.17 30.0864C235.043 30.2135 234.916 30.3406 234.789 30.4677C234.693 30.5631 234.566 30.6584 234.407 30.7538C232.946 31.8662 231.214 32.4223 229.212 32.4223C226.193 32.4223 224.016 31.2782 222.681 28.9899C222.014 27.8457 221.569 26.5427 221.347 25.0807C221.124 23.6187 221.14 21.9978 221.394 20.218L223.11 8.01371Z" stroke="#6A657B" stroke-width="0.2" mask="url(#path-1-outside-1_23_239)"/>
<path d="M250.225 24.5086C250.129 24.4133 250.034 24.3179 249.939 24.2226C249.843 24.1272 249.748 24.016 249.653 23.8889C248.159 22.0455 247.603 19.8525 247.984 17.31C248.366 14.7038 249.526 12.5109 251.464 10.7311C253.434 8.9195 255.659 8.01371 258.138 8.01371H268.1L264.716 31.8503H257.041L257.756 26.6062H257.518C257.518 26.6062 257.502 26.6062 257.47 26.6062L254.42 31.8503H245.935L250.225 24.5086ZM259.234 16.1181H256.994C256.644 16.1181 256.358 16.2294 256.136 16.4518C255.85 16.7379 255.691 17.0239 255.659 17.31C255.595 17.6596 255.659 17.9456 255.85 18.1681C256.04 18.3906 256.31 18.5018 256.66 18.5018H258.9L259.234 16.1181Z" stroke="#6A657B" stroke-width="0.2" mask="url(#path-1-outside-1_23_239)"/>
</svg>
