<svg width="41" height="22" viewBox="0 0 41 22" fill="none" xmlns="http://www.w3.org/2000/svg">
<path fill-rule="evenodd" clip-rule="evenodd" d="M18.1811 12.771L25.7324 19.1827C26.0628 19.4637 26.579 19.4605 26.7875 19.4453C26.9961 19.4302 27.4979 19.3632 27.6796 19.0444L37.1223 2.35311C37.2875 2.05808 36.984 1.85708 36.8477 1.78575C36.7155 1.71442 36.3377 1.56205 35.7905 1.6431L3.87556 6.53431C3.27055 6.62725 3.13839 6.8931 3.10948 7.00225C3.08058 7.11356 3.07232 7.38914 3.60712 7.56529L15.9985 11.6211L26.9465 5.83078C27.5474 5.51306 28.5282 5.50981 29.1374 5.82429C29.7465 6.13878 29.7507 6.65319 29.1498 6.97091L18.1811 12.771ZM26.6265 21.0729C25.1893 21.0729 23.8719 20.6903 23.0955 20.0332L15.09 13.2346L1.96554 8.93885C0.551089 8.47523 -0.18814 7.64958 0.041062 6.78179C0.2682 5.91399 1.40595 5.22451 3.00417 4.97919L34.9191 0.087984C36.3872 -0.1368 37.9606 0.0760963 39.0426 0.640217C40.1247 1.20974 40.5273 2.04187 40.0895 2.81349L30.6468 19.5037C30.174 20.3434 28.8524 20.9367 27.1985 21.0523C27.0044 21.0653 26.8165 21.0729 26.6265 21.0729V21.0729Z" fill="#6A657B"/>
</svg>
