<svg width="15" height="12" viewBox="0 0 15 12" fill="none" xmlns="http://www.w3.org/2000/svg">
<path fill-rule="evenodd" clip-rule="evenodd" d="M10.0062 11.2392H4.7599C2.13567 11.2392 0 10.1215 0 8.7469V2.49285C0 1.1183 2.13567 0 4.7599 0H9.99438C12.6208 0 14.7575 1.1183 14.7575 2.49285V3.0166C14.7575 3.24925 14.3967 3.43807 13.9522 3.43807C13.5077 3.43807 13.1469 3.24925 13.1469 3.0166V2.49285C13.1469 1.58248 11.7328 0.842939 9.99438 0.842939H4.7599C3.02366 0.842939 1.61061 1.58248 1.61061 2.49285V8.7469C1.61061 9.65671 3.02366 10.3963 4.7599 10.3963H10.0062C11.7371 10.3963 13.1469 9.65896 13.1469 8.75308V8.22316C13.1469 7.9905 13.5077 7.80169 13.9522 7.80169C14.3967 7.80169 14.7575 7.9905 14.7575 8.22316V8.75308C14.7575 10.1243 12.6251 11.2392 10.0062 11.2392" fill="#6A657B"/>
</svg>
