<svg width="28" height="28" viewBox="0 0 28 28" fill="none" xmlns="http://www.w3.org/2000/svg">
<path d="M17.7604 27.7708H10.0104C2.99667 27.7708 0 24.7742 0 17.7604V10.0104C0 2.99667 2.99667 0 10.0104 0H12.5938C13.1233 0 13.5625 0.439167 13.5625 0.96875C13.5625 1.49833 13.1233 1.9375 12.5938 1.9375H10.0104C4.05583 1.9375 1.9375 4.05583 1.9375 10.0104V17.7604C1.9375 23.715 4.05583 25.8333 10.0104 25.8333H17.7604C23.715 25.8333 25.8333 23.715 25.8333 17.7604V15.1771C25.8333 14.6475 26.2725 14.2083 26.8021 14.2083C27.3317 14.2083 27.7708 14.6475 27.7708 15.1771V17.7604C27.7708 24.7742 24.7742 27.7708 17.7604 27.7708Z" fill="#6A657B"/>
</svg>
