<svg width="31" height="31" viewBox="0 0 31 31" fill="none" xmlns="http://www.w3.org/2000/svg">
<path d="M16.7917 15.1771C16.5463 15.1771 16.3009 15.0866 16.1071 14.8929C15.7325 14.5183 15.7325 13.8983 16.1071 13.5237L26.6988 2.93206C27.0734 2.55748 27.6934 2.55748 28.0679 2.93206C28.4425 3.30664 28.4425 3.92664 28.0679 4.30123L17.4763 14.8929C17.2825 15.0866 17.0371 15.1771 16.7917 15.1771Z" fill="#6A657B"/>
<path d="M28.4167 9.75212C27.8871 9.75212 27.4479 9.31296 27.4479 8.78337V3.55212H22.2167C21.6871 3.55212 21.2479 3.11296 21.2479 2.58337C21.2479 2.05379 21.6871 1.61462 22.2167 1.61462H28.4167C28.9463 1.61462 29.3854 2.05379 29.3854 2.58337V8.78337C29.3854 9.31296 28.9463 9.75212 28.4167 9.75212Z" fill="#6A657B"/>
<path d="M19.375 29.3855H11.625C4.61129 29.3855 1.61462 26.3888 1.61462 19.375V11.625C1.61462 4.61129 4.61129 1.61462 11.625 1.61462H14.2084C14.738 1.61462 15.1771 2.05379 15.1771 2.58337C15.1771 3.11296 14.738 3.55212 14.2084 3.55212H11.625C5.67046 3.55212 3.55212 5.67046 3.55212 11.625V19.375C3.55212 25.3296 5.67046 27.448 11.625 27.448H19.375C25.3296 27.448 27.448 25.3296 27.448 19.375V16.7917C27.448 16.2621 27.8871 15.823 28.4167 15.823C28.9463 15.823 29.3855 16.2621 29.3855 16.7917V19.375C29.3855 26.3888 26.3888 29.3855 19.375 29.3855Z" fill="#6A657B"/>
</svg>
