<svg width="24" height="14" viewBox="0 0 24 14" fill="none" xmlns="http://www.w3.org/2000/svg">
<path fill-rule="evenodd" clip-rule="evenodd" d="M6.44518 10.0115C6.7289 10.0115 7.01262 10.0303 7.29014 10.0692C8.12765 10.1872 8.85491 10.4803 9.28606 10.8739C9.56605 11.121 9.72092 11.4095 9.72588 11.7039C9.72588 12.1254 10.3726 12.4632 11.168 12.4632H12.7204C13.5121 12.4632 14.1588 12.1273 14.1625 11.713C14.1575 11.2552 14.4995 10.8201 15.1251 10.4927C15.7421 10.1697 16.6044 9.97586 17.4667 9.98883C18.0317 9.99596 18.5756 10.0757 19.055 10.2184C19.7451 10.4252 20.626 10.302 21.0249 9.94539L21.8476 9.22759C22.031 9.06225 22.0842 8.85475 21.9864 8.66347C21.8897 8.47219 21.6469 8.3062 21.3198 8.20829C20.5541 7.97745 20.0078 7.60526 19.7811 7.15915C19.5568 6.72147 19.6795 6.24359 20.1168 5.85C20.4018 5.59063 20.8193 5.37212 21.3198 5.22169C21.9913 5.01614 22.2267 4.55641 21.8364 4.19849C21.8203 4.18422 21.8055 4.16931 21.7931 4.15375L21.0671 3.49496C20.6718 3.13509 19.7922 3.01124 19.1021 3.21679C18.3563 3.44762 17.4692 3.51376 16.6168 3.3964C15.7657 3.28098 15.052 2.99892 14.6073 2.60079C14.3223 2.3518 14.1674 2.06196 14.1625 1.76693C14.1736 1.54517 14.025 1.34611 13.7549 1.20022C13.486 1.05497 13.1082 0.972622 12.7204 0.972622H11.168C10.7839 0.972622 10.4246 1.05108 10.1533 1.19244C9.88322 1.33444 9.73579 1.52313 9.73827 1.72414C9.71225 2.67212 8.23172 3.4353 6.43899 3.4353C5.86413 3.43206 5.31032 3.35101 4.82962 3.20058C4.1544 2.99957 3.27228 3.12341 2.87706 3.48329L2.0383 4.20497C1.65423 4.55382 1.88963 5.01484 2.57352 5.22298C3.58821 5.53033 4.2213 6.10353 4.2213 6.71823C4.2213 7.33292 3.58821 7.90548 2.57104 8.21347C1.89087 8.41967 1.65547 8.8781 2.04945 9.23473L2.83122 9.9402C3.02449 10.1224 3.34042 10.254 3.70591 10.3079C4.07015 10.361 4.47157 10.3383 4.80608 10.2411C5.29793 10.09 5.87032 10.0115 6.44518 10.0115M12.7204 13.4358H11.168C9.348 13.4358 7.86748 12.6616 7.86748 11.7091C7.865 11.5917 7.80058 11.4698 7.6804 11.3641C7.48589 11.1865 7.1712 11.0594 6.80819 11.0088C6.44766 10.9582 6.05244 10.9861 5.72784 11.0847C4.94979 11.3116 4.03422 11.3667 3.1967 11.2435C2.36042 11.1197 1.63813 10.8188 1.21441 10.42L0.44008 9.72169C-0.46558 8.8995 0.0733558 7.84582 1.64184 7.37118C2.08662 7.23696 2.3629 6.98667 2.3629 6.71823C2.3629 6.44978 2.08662 6.19885 1.64184 6.06463C0.072117 5.58739 -0.46558 4.53112 0.438841 3.70893L1.27884 2.98725C2.17211 2.17414 4.19157 1.88754 5.76625 2.36088C5.98058 2.42767 6.2135 2.46138 6.45014 2.46268C7.222 2.46268 7.86748 2.12939 7.87987 1.7196C7.87491 1.26765 8.21562 0.833862 8.83632 0.506412C9.45951 0.179611 10.2871 0 11.168 0H12.7204C13.6075 0 14.4697 0.190634 15.088 0.521974C15.705 0.855259 16.0457 1.31239 16.0197 1.77601C16.0221 1.8804 16.0878 2.00101 16.2067 2.1067C16.4037 2.28177 16.7147 2.40497 17.0839 2.45555C17.4531 2.50353 17.8396 2.47759 18.168 2.37579C19.7538 1.9018 21.772 2.18581 22.6777 3.00929L23.4495 3.70893C23.4694 3.72774 23.4867 3.74589 23.5016 3.7647C24.3217 4.57586 23.7741 5.59712 22.2502 6.06333C22.0285 6.13012 21.8488 6.22349 21.7249 6.33631C21.5329 6.51073 21.4796 6.71823 21.5763 6.90886C21.6754 7.10339 21.912 7.26484 22.2453 7.3647C22.9973 7.59099 23.5586 7.97226 23.7828 8.41254C24.007 8.85216 23.8844 9.32939 23.4471 9.72298L22.6244 10.4401C21.7187 11.2545 19.7005 11.5366 18.1308 11.062C17.9214 10.9991 17.6798 10.9647 17.4395 10.9615H17.432C17.074 10.9615 16.706 11.0412 16.4384 11.1806C16.1671 11.3226 16.0184 11.512 16.0209 11.713C16.0122 12.6655 14.5317 13.4358 12.7204 13.4358" fill="#6A657B"/>
</svg>
